<svg xmlns="http://www.w3.org/2000/svg" width="512" height="512" viewBox="0 0 512 512"><defs><linearGradient id="blue" x1="0" y1="0" x2="1" y2="1"><stop stop-color="#55B8FF"/><stop offset="1" stop-color="#0752DB"/></linearGradient><linearGradient id="green" x1="0" y1="0" x2="1" y2="1"><stop stop-color="#55D993"/><stop offset="1" stop-color="#008B65"/></linearGradient><linearGradient id="paper" x1="0" y1="0" x2="1" y2="1"><stop stop-color="#fff"/><stop offset="1" stop-color="#DDEAFF"/></linearGradient><linearGradient id="dark" x1="0" y1="0" x2="1" y2="1"><stop stop-color="#66758D"/><stop offset="1" stop-color="#202A3D"/></linearGradient><linearGradient id="gold" x1="0" y1="0" x2="1" y2="1"><stop stop-color="#FFD66A"/><stop offset="1" stop-color="#FF9E05"/></linearGradient><linearGradient id="box" x1="0" y1="0" x2="1" y2="1"><stop stop-color="#FFD28B"/><stop offset="1" stop-color="#B86D30"/></linearGradient></defs><rect x="78" y="65" width="322" height="384" rx="33" fill="url(#paper)" stroke="#D5E1F3" stroke-width="7"/><path d="M126 145h201M126 199h174M126 253h150M126 307h95" stroke="#9AAFCF" stroke-width="16" stroke-linecap="round"/><g transform="rotate(39 316 294)"><rect x="296" y="155" width="42" height="238" rx="7" fill="url(#gold)"/><rect x="296" y="155" width="42" height="42" rx="7" fill="#FF7584"/><rect x="296" y="197" width="42" height="16" fill="#293B58"/><path d="m296 393 21 49 21-49" fill="#E9B98E"/><path d="m308 420 9 22 9-22" fill="#26364F"/></g></svg>